# xmcd
#
# Track frame offsets: 
#        150
#        22517
#        45704
#        63799
#        86923
#        110484
#        129031
#        147322
#        166481
#
# Disc length: 2323 seconds
#
# Revision: 0
# Processed by: cddbd v1.5.2PL0 Copyright (c) Steve Scherf et al.
# Submitted via: ExactAudioCopy v0.99pb4
#
DISCID=6b091109
DTITLE=MCB - MCB
DYEAR=1983
DGENRE=R&B
TTITLE0=Can't Fight The Feelin'
TTITLE1=I'm The One, You're The One
TTITLE2=Close To You
TTITLE3=Time Is Right
TTITLE4=Do It Up
TTITLE5=Jusr A Thrill
TTITLE6=Bring It Back (To The Music)
TTITLE7=Feels So Right
TTITLE8=Can't Fight The Feelin' (Reprise)
EXTD=
EXTT0=
EXTT1=
EXTT2=
EXTT3=
EXTT4=
EXTT5=
EXTT6=
EXTT7=
EXTT8=
PLAYORDER=
